<?xml version="1.0" encoding="iso-8859-1"?>
<!-- Generator: Adobe Illustrator 19.0.0, SVG Export Plug-In . SVG Version: 6.00 Build 0)  -->
<svg version="1.1" id="Capa_1" xmlns="http://www.w3.org/2000/svg" xmlns:xlink="http://www.w3.org/1999/xlink" x="0px" y="0px"
	 viewBox="0 0 512 512" style="enable-background:new 0 0 512 512;" xml:space="preserve">
<path style="fill:#707487;" d="M281.083,501.611v-26.849h-52.236v26.849c0,5.714,4.675,10.389,10.389,10.389h31.457
	C276.408,512,281.083,507.325,281.083,501.611z"/>
<path style="fill:#5B5D6E;" d="M254.965,501.611v-26.849h-26.118v26.849c0,5.714,4.675,10.389,10.389,10.389h26.118
	C259.641,512,254.965,507.325,254.965,501.611z"/>
<path style="fill:#FFC850;" d="M198.445,366.743v42.676h113.04v-41.983c0-15.105,7.841-29.076,20.634-37.108
	c40.934-25.7,68.145-71.244,68.145-123.145c0-79.936-64.55-144.796-144.368-145.297c-80.168-0.503-146.232,65.129-146.231,145.298
	c0,52.232,27.562,98.026,68.933,123.634C191.005,338.499,198.445,352.153,198.445,366.743z"/>
<path style="fill:#F9B428;" d="M199.512,330.819c-41.371-25.608-68.933-71.402-68.933-123.634
	c-0.001-76.337,59.897-139.49,134.835-144.92c-3.147-0.224-6.318-0.358-9.516-0.378c-80.168-0.503-146.232,65.129-146.231,145.298
	c0,52.232,27.562,98.026,68.933,123.634c12.406,7.679,19.846,21.333,19.846,35.924v42.676h20.912v-42.676
	C219.358,352.153,211.917,338.499,199.512,330.819z"/>
<g>
	<path style="fill:#E4EAF8;" d="M312.805,441.583h-115.68c-6.6,0-12-5.4-12-12v-11.209c0-6.6,5.4-12,12-12h115.68
		c6.6,0,12,5.4,12,12v11.209C324.805,436.183,319.405,441.583,312.805,441.583z"/>
	<path style="fill:#E4EAF8;" d="M312.805,476.791h-115.68c-6.6,0-12-5.4-12-12v-11.209c0-6.6,5.4-12,12-12h115.68
		c6.6,0,12,5.4,12,12v11.209C324.805,471.391,319.405,476.791,312.805,476.791z"/>
</g>
<g>
	<path style="fill:#D8DCE5;" d="M312.626,423.978H197.305c-5.527,0-10.215-3.735-11.69-8.802c-0.313,1.074-0.489,2.205-0.489,3.377
		v10.85c0,6.699,5.481,12.179,12.179,12.179h115.321c6.698,0,12.179-5.481,12.179-12.179v-10.85c0-1.172-0.177-2.303-0.489-3.377
		C322.841,420.244,318.153,423.978,312.626,423.978z"/>
	<path style="fill:#D8DCE5;" d="M312.626,459.187H197.305c-5.527,0-10.215-3.735-11.69-8.802c-0.313,1.074-0.489,2.205-0.489,3.377
		v10.85c0,6.698,5.481,12.179,12.179,12.179h115.321c6.698,0,12.179-5.481,12.179-12.179v-10.85c0-1.172-0.177-2.303-0.489-3.377
		C322.841,455.452,318.153,459.187,312.626,459.187z"/>
</g>
<g>
	<path style="fill:#FFC850;" d="M81.01,215.465H55.758c-4.204,0-7.612-3.408-7.612-7.612s3.408-7.612,7.612-7.612H81.01
		c4.204,0,7.612,3.408,7.612,7.612C88.622,212.057,85.214,215.465,81.01,215.465z"/>
	<path style="fill:#FFC850;" d="M456.242,215.465H430.99c-4.204,0-7.612-3.408-7.612-7.612s3.408-7.612,7.612-7.612h25.252
		c4.204,0,7.612,3.408,7.612,7.612C463.854,212.057,460.446,215.465,456.242,215.465z"/>
	<path style="fill:#FFC850;" d="M109.025,354.828c-2.973-2.972-2.973-7.792,0-10.765l17.855-17.855
		c2.972-2.972,7.792-2.972,10.765,0s2.973,7.792,0,10.765l-17.855,17.855C116.817,357.801,111.998,357.801,109.025,354.828z"/>
	<path style="fill:#FFC850;" d="M256,40.475c-4.204,0-7.612-3.408-7.612-7.612V7.612C248.388,3.408,251.796,0,256,0
		c4.204,0,7.612,3.408,7.612,7.612v25.251C263.612,37.067,260.204,40.475,256,40.475z"/>
	<path style="fill:#FFC850;" d="M392.21,354.828l-17.856-17.855c-2.973-2.972-2.973-7.792,0-10.765
		c2.972-2.972,7.792-2.972,10.765,0l17.856,17.855c2.973,2.972,2.973,7.792,0,10.765
		C400.002,357.801,395.182,357.801,392.21,354.828z"/>
	<path style="fill:#FFC850;" d="M126.881,89.499l-17.855-17.855c-2.973-2.972-2.973-7.792,0-10.765
		c2.972-2.972,7.792-2.972,10.765,0l17.855,17.855c2.973,2.972,2.973,7.792,0,10.765C134.673,92.472,129.853,92.472,126.881,89.499z
		"/>
</g>
<path style="fill:#00AAF0;" d="M437.246,55.891h-43.98c-6.064,0-10.979,4.915-10.979,10.979s4.915,10.979,10.979,10.979h18.279
	L282.547,209.045l-29.624-21.037c-4.565-3.242-10.839-2.529-14.56,1.654l-63.168,71.013c-6.321,7.106-1.186,18.276,8.199,18.276
	c3.026,0,6.038-1.244,8.207-3.682l56.629-63.662l29.23,20.757c4.395,3.121,10.406,2.589,14.185-1.254L426.267,94.196v18.843
	c0,6.063,4.915,10.979,10.979,10.979s10.979-4.916,10.979-10.979V66.87C448.225,60.807,443.309,55.891,437.246,55.891z"/>
<g>
	<path style="fill:#039ADD;" d="M393.266,77.849h8.445c-5.732-0.254-11.305-1.3-11.305-4.987c0-6.064,4.915-10.979,10.979-10.979
		h43.98c0.588,0,1.162,0.059,1.725,0.149c-1.79-3.634-5.519-6.141-9.844-6.141h-43.98c-6.064,0-10.979,4.915-10.979,10.979
		C382.287,72.934,387.202,77.849,393.266,77.849z"/>
	<path style="fill:#039ADD;" d="M260.73,193.552l-7.807-5.544c-4.565-3.242-10.839-2.529-14.56,1.654l-62.994,70.817
		c-5.909,6.642-2.294,16.965,6.3,18.328c-1.909-3.887-1.41-8.705,1.646-12.14l63.168-71.013
		C250.07,191.622,256.216,190.701,260.73,193.552L260.73,193.552z"/>
	<path style="fill:#039ADD;" d="M419.028,77.462l-7.483,0.387L282.547,209.045l5.295,3.908c1.62,1.196,3.873,1.017,5.285-0.419
		l128.07-130.251C423.01,80.439,421.611,77.329,419.028,77.462z"/>
</g>
<g>
</g>
<g>
</g>
<g>
</g>
<g>
</g>
<g>
</g>
<g>
</g>
<g>
</g>
<g>
</g>
<g>
</g>
<g>
</g>
<g>
</g>
<g>
</g>
<g>
</g>
<g>
</g>
<g>
</g>
</svg>
