<svg id="color" enable-background="new 0 0 24 24" height="512" viewBox="0 0 24 24" width="512" xmlns="http://www.w3.org/2000/svg"><path d="m22.843 12.586c-.169-.372-.169-.8 0-1.172l.895-1.969c.333-.733.348-1.58.04-2.323-.309-.744-.917-1.333-1.671-1.615l-2.024-.76c-.384-.144-.686-.445-.829-.829l-.76-2.024c-.282-.754-.871-1.362-1.615-1.671-.741-.308-1.59-.293-2.323.04l-1.969.895c-.373.17-.801.17-1.172 0l-1.97-.895c-.732-.334-1.581-.349-2.323-.04-.744.308-1.333.917-1.615 1.671l-.76 2.024c-.143.384-.445.686-.829.829l-2.024.76c-.754.282-1.363.871-1.671 1.615-.308.743-.293 1.59.04 2.323l.895 1.969c.169.372.169.8 0 1.172l-.895 1.969c-.333.733-.348 1.58-.04 2.323.309.744.917 1.333 1.671 1.615l2.024.76c.384.144.686.445.829.829l.76 2.024c.282.754.871 1.362 1.615 1.671.355.147.735.221 1.115.221.413 0 .826-.087 1.208-.261l1.969-.895c.373-.17.801-.17 1.172 0l1.969.895c.732.334 1.581.348 2.323.04.744-.309 1.333-.917 1.615-1.671l.76-2.024c.144-.384.445-.686.829-.829l2.024-.76c.754-.282 1.362-.871 1.671-1.615.308-.743.293-1.59-.04-2.323z" fill="#f44336"/><g fill="#fafafa"><path d="m7.879 15.164-.354.354-.707-.707 1.237-1.238c.293-.293.293-.768 0-1.061-.293-.294-.768-.292-1.06 0l-1.767 1.768c-.293.293-.293.768 0 1.061l1.768 1.768c.293.293.768.293 1.06 0l.884-.884c.194-.194.513-.196.707 0 .195.194.195.513.001.707l-.885.884c-.293.292-.293.768 0 1.061.147.146.338.22.53.22.191 0 .384-.073.53-.22l.886-.884c.777-.78.777-2.048-.001-2.828-.781-.781-2.052-.779-2.829-.001z"/><path d="m12.085 10.251c-.779-.779-2.047-.778-2.828-.001-.377.378-.586.88-.586 1.414s.208 1.037.586 1.415l1.768 1.768c.378.378.88.586 1.414.586h.001c.534 0 1.036-.209 1.413-.586.78-.779.78-2.049 0-2.828zm.706 3.535c-.094.095-.219.147-.352.147h-.001c-.134 0-.259-.052-.354-.147l-1.768-1.768c-.095-.095-.147-.221-.147-.355 0-.133.052-.258.147-.352v-.001c.098-.098.226-.147.354-.147s.256.049.354.147l1.768 1.768c.195.196.195.513-.001.708z"/><path d="m12.792 9.731c.32 0 .641-.121.884-.365.487-.487.487-1.28 0-1.768-.486-.488-1.281-.488-1.768 0-.487.487-.487 1.28 0 1.768.243.244.564.365.884.365z"/><path d="m18.626 8.306c-.486-.488-1.281-.488-1.768 0-.236.236-.366.551-.366.886 0 .334.131.647.366.882.244.244.564.366.884.366s.64-.122.883-.365c.236-.235.367-.549.367-.883 0-.336-.13-.65-.366-.886z"/><path d="m14.831 4.909c-.411.046-.708.416-.662.828l.707 6.364c.042.384.367.667.744.667l.084-.005c.411-.046.708-.416.662-.828l-.707-6.364c-.045-.411-.41-.704-.828-.662z"/></g><path d="m17.742 10.439c-.319 0-.64-.122-.884-.366-.235-.234-.366-.548-.366-.882 0-.335.13-.649.366-.886.243-.244.563-.366.884-.366.32 0 .641.122.884.366.236.236.366.551.366.886 0 .334-.131.647-.367.883-.243.243-.563.365-.883.365zm2.153-5.778-3.903 3.903.375 3.371c.046.412-.251.782-.662.828l-.084.005c-.377 0-.702-.283-.744-.667l-.242-2.179-1.439 1.439.658.658c.78.779.78 2.049 0 2.828-.377.377-.879.586-1.413.586h-.001c-.534 0-1.036-.208-1.414-.586l-.657-.657-.48.48c.3.093.583.258.821.495.778.78.778 2.048.001 2.828l-.886.884c-.146.146-.339.22-.53.22-.192 0-.384-.073-.53-.22-.293-.293-.293-.769 0-1.061l.885-.884c.194-.194.194-.513-.001-.707-.097-.098-.225-.146-.353-.146s-.257.049-.354.146l-.884.884c-.146.146-.338.22-.53.22-.086 0-.172-.015-.253-.044l-2.611 2.611c.033.06.062.122.086.187l.76 2.024c.282.754.871 1.362 1.615 1.671.355.147.735.221 1.115.221.413 0 .826-.087 1.208-.261l1.969-.895c.187-.085.387-.127.587-.127s.4.042.585.127l1.969.895c.382.174.795.261 1.208.261.38 0 .76-.074 1.116-.221.744-.309 1.333-.917 1.615-1.671l.76-2.024c.144-.384.445-.686.829-.829l2.024-.76c.754-.282 1.362-.871 1.671-1.615.308-.743.293-1.59-.04-2.323l-.895-1.969c-.169-.372-.169-.8 0-1.172l.895-1.969c.333-.733.348-1.58.04-2.323-.309-.744-.917-1.333-1.671-1.615l-2.024-.76c-.069-.025-.131-.054-.191-.087z" fill="#d43a2f"/><path d="m9.887 14.669-2.615 2.615c.082.029.168.044.253.044.192 0 .384-.073.53-.22l.884-.884c.097-.097.226-.146.354-.146s.256.049.353.146c.195.194.195.513.001.707l-.885.884c-.293.292-.293.768 0 1.061.147.146.338.22.53.22.191 0 .384-.073.53-.22l.886-.884c.777-.78.777-2.048-.001-2.828-.237-.237-.519-.402-.82-.495z" fill="#dadada"/><path d="m12.134 12.422-.707.707.657.657c.095.095.22.147.354.147h.001c.133 0 .258-.052.352-.147.196-.195.196-.512.001-.707z" fill="#d43a2f"/><path d="m13.195 11.361-1.061 1.061.658.657c.195.195.195.512-.001.707-.094.095-.219.147-.352.147h-.001c-.134 0-.259-.052-.354-.147l-.657-.657-1.061 1.061.657.657c.378.378.88.586 1.414.586h.001c.534 0 1.036-.209 1.413-.586.78-.779.78-2.049 0-2.828z" fill="#dadada"/><path d="m15.992 8.564-1.358 1.358.242 2.179c.042.384.367.667.744.667l.084-.005c.411-.046.708-.416.662-.828z" fill="#dadada"/><path d="m18.71 8.399-1.759 1.759c.229.188.511.282.792.282.32 0 .641-.121.884-.365.457-.458.485-1.186.083-1.676z" fill="#dadada"/><path d="m13.76 7.692-1.759 1.759c.229.188.511.282.792.282.32 0 .641-.121.884-.365.457-.458.485-1.186.083-1.676z" fill="#dadada"/></svg>